<?xml version="1.0" standalone="no"?>
<!DOCTYPE svg PUBLIC "-//W3C//DTD SVG 20010904//EN"
 "http://www.w3.org/TR/2001/REC-SVG-20010904/DTD/svg10.dtd">
<svg version="1.0" xmlns="http://www.w3.org/2000/svg"
 width="512.000000pt" height="512.000000pt" viewBox="0 0 512.000000 512.000000"
 preserveAspectRatio="xMidYMid meet">

<g transform="translate(0.000000,512.000000) scale(0.100000,-0.100000)"
fill="#000000" stroke="none">
<path d="M2370 4684 c-14 -2 -59 -9 -100 -15 -334 -48 -674 -203 -948 -433
-144 -121 -152 -131 -152 -180 0 -53 28 -92 73 -104 49 -13 83 2 155 70 579
545 1454 616 2117 173 107 -71 225 -168 225 -185 0 -4 -50 -60 -110 -123 -108
-113 -110 -115 -83 -121 549 -119 759 -163 762 -160 3 3 -159 793 -164 802 -1
1 -57 -54 -125 -122 l-122 -124 -79 68 c-277 239 -630 397 -995 445 -103 13
-385 19 -454 9z"/>
<path d="M2168 3584 l-216 -12 -393 -229 -393 -228 44 -6 c25 -4 115 -12 200
-19 l155 -12 430 252 c237 139 434 256 440 261 10 10 25 11 -267 -7z"/>
<path d="M2746 3531 c5 -4 160 -96 345 -204 l335 -197 148 14 c81 8 149 16
151 18 2 2 -133 84 -301 181 l-305 178 -147 9 c-185 12 -239 12 -226 1z"/>
<path d="M3065 2735 c-231 -140 -420 -258 -420 -264 0 -10 460 -357 504 -380
11 -6 31 -11 46 -11 26 0 763 418 797 452 12 12 15 24 10 37 -4 11 -106 97
-227 192 -121 94 -236 184 -255 200 l-36 27 -419 -253z"/>
<path d="M1328 2783 c-133 -101 -247 -191 -251 -200 -6 -9 -5 -24 1 -37 5 -13
160 -119 367 -254 280 -182 365 -232 390 -232 21 0 50 12 79 33 74 52 485 372
485 377 0 3 -186 116 -414 251 l-414 247 -243 -185z"/>
<path d="M2230 2154 c-151 -117 -291 -219 -310 -226 -84 -29 -182 -10 -272 53
-14 11 -29 19 -33 19 -4 0 -5 -40 -3 -90 2 -74 7 -93 23 -108 18 -18 835 -495
868 -508 19 -7 862 467 895 502 20 23 22 35 22 125 0 56 -3 99 -7 97 -119 -61
-128 -63 -213 -63 -118 0 -148 16 -432 234 -131 99 -243 181 -250 180 -7 0
-137 -97 -288 -215z"/>
<path d="M810 1507 c0 -16 162 -791 167 -796 2 -3 57 51 122 120 93 97 122
122 134 114 8 -5 45 -36 83 -69 167 -142 410 -278 625 -350 311 -103 678 -125
997 -60 355 73 690 247 940 489 76 75 82 83 82 121 0 50 -27 88 -74 104 -48
15 -79 0 -156 -74 -222 -217 -522 -372 -847 -437 -153 -30 -408 -37 -563 -15
-199 29 -375 84 -541 167 -101 50 -270 164 -344 232 l-60 54 112 119 c61 65
111 119 110 120 -1 1 -173 39 -382 84 -209 44 -386 83 -392 85 -7 2 -13 -1
-13 -8z"/>
</g>
</svg>
